<svg xmlns="http://www.w3.org/2000/svg" viewBox="0 0 1200 800">
  <!-- Background -->
  <rect width="1200" height="800" fill="#1E1E2E" />
  
  <!-- Sidebar -->
  <rect x="0" y="0" width="220" height="800" fill="#181825" />
  
  <!-- Sidebar Logo Area -->
  <rect x="0" y="0" width="220" height="60" fill="#313244" />
  <text x="110" y="38" font-family="Arial" font-size="20" fill="#CDD6F4" text-anchor="middle" font-weight="bold">AUI</text>
  
  <!-- Sidebar Menu Items -->
  <g>
    <rect x="15" y="80" width="190" height="40" rx="5" fill="#181825" />
    <text x="55" y="105" font-family="Arial" font-size="14" fill="#CDD6F4">Dashboard</text>
    <rect x="20" y="90" width="20" height="20" fill="#CDD6F4" />
  </g>
  
  <g>
    <rect x="15" y="130" width="190" height="40" rx="5" fill="#45475A" />
    <text x="55" y="155" font-family="Arial" font-size="14" fill="#CDD6F4">Code Assistant</text>
    <rect x="20" y="140" width="20" height="20" fill="#89B4FA" />
  </g>
  
  <g>
    <rect x="15" y="180" width="190" height="40" rx="5" fill="#181825" />
    <text x="55" y="205" font-family="Arial" font-size="14" fill="#CDD6F4">Knowledge Base</text>
    <rect x="20" y="190" width="20" height="20" fill="#F9E2AF" />
  </g>
  
  <g>
    <rect x="15" y="230" width="190" height="40" rx="5" fill="#181825" />
    <text x="55" y="255" font-family="Arial" font-size="14" fill="#CDD6F4">Command History</text>
    <rect x="20" y="240" width="20" height="20" fill="#F38BA8" />
  </g>
  
  <g>
    <rect x="15" y="280" width="190" height="40" rx="5" fill="#181825" />
    <text x="55" y="305" font-family="Arial" font-size="14" fill="#CDD6F4">CI/CD Monitor</text>
    <rect x="20" y="290" width="20" height="20" fill="#A6E3A1" />
  </g>
  
  <g>
    <rect x="15" y="330" width="190" height="40" rx="5" fill="#181825" />
    <text x="55" y="355" font-family="Arial" font-size="14" fill="#CDD6F4">Settings</text>
    <rect x="20" y="340" width="20" height="20" fill="#FAB387" />
  </g>
  
  <!-- Sidebar bottom info -->
  <rect x="15" y="730" width="190" height="50" rx="5" fill="#313244" opacity="0.8" />
  <text x="110" y="760" font-family="Arial" font-size="12" fill="#CDD6F4" text-anchor="middle">Local LLM: Mistral 7B</text>
  <circle cx="30" cy="755" r="8" fill="#A6E3A1" />
  
  <!-- Main Chat Area -->
  <rect x="240" y="70" width="720" height="670" rx="10" fill="#313244" />
  
  <!-- Chat Header -->
  <rect x="240" y="70" width="720" height="50" rx="10" fill="#45475A" />
  <text x="270" y="100" font-family="Arial" font-size="16" fill="#CDD6F4" font-weight="bold">Code Assistant</text>
  
  <!-- Chat messages area -->
  <rect x="240" y="120" width="720" height="540" fill="#1E1E2E" />
  
  <!-- AI Message -->
  <g>
    <rect x="270" y="140" width="670" height="110" rx="10" fill="#313244" />
    <circle cx="295" cy="165" r="15" fill="#89B4FA" />
    <text x="295" y="170" font-family="Arial" font-size="14" fill="#1E1E2E" text-anchor="middle" font-weight="bold">AUI</text>
    <text x="325" y="175" font-family="Arial" font-size="14" fill="#CDD6F4">I've analyzed the authentication module and found several potential issues:</text>
    <rect x="325" y="190" width="590" height="40" fill="#181825" rx="5" />
    <text x="335" y="210" font-family="Arial" font-size="12" fill="#F38BA8">1. JWT token expiration not being verified in middleware/auth.js</text>
    <text x="335" y="225" font-family="Arial" font-size="12" fill="#F38BA8">2. Missing refresh token rotation in the auth flow</text>
  </g>
  
  <!-- User message -->
  <g>
    <rect x="270" y="270" width="670" height="60" rx="10" fill="#45475A" />
    <circle cx="295" cy="295" r="15" fill="#F9E2AF" />
    <text x="295" y="300" font-family="Arial" font-size="14" fill="#1E1E2E" text-anchor="middle" font-weight="bold">DEV</text>
    <text x="325" y="305" font-family="Arial" font-size="14" fill="#CDD6F4">Can you show me how to fix the JWT verification issue?</text>
  </g>
  
  <!-- AI Message with code -->
  <g>
    <rect x="270" y="350" width="670" height="220" rx="10" fill="#313244" />
    <circle cx="295" cy="375" r="15" fill="#89B4FA" />
    <text x="295" y="380" font-family="Arial" font-size="14" fill="#1E1E2E" text-anchor="middle" font-weight="bold">AUI</text>
    <text x="325" y="380" font-family="Arial" font-size="14" fill="#CDD6F4">Here's how to fix the JWT token expiration verification:</text>
    
    <!-- Code block -->
    <rect x="325" y="395" width="590" height="155" fill="#181825" rx="5" />
  <text x="335" y="415" font-family="Arial" font-size="12" fill="#CDD6F4" style="white-space: pre">// middleware/auth.js
const jwt = require('jsonwebtoken');

module.exports = function(req, res, next) {
  const token = req.header('x-auth-token');
  if (!token) return res.status(401).json({ msg: 'No token, authorization denied' });

  try {
    // Verify token and check expiration
    const decoded = jwt.verify(token, process.env.JWT_SECRET);
    
    // Additional expiration check
    const currentTime = Math.floor(Date.now() / 1000);
    if (decoded.exp &lt; currentTime) {
      return res.status(401).json({ msg: 'Token expired' });
    }
    
    req.user = decoded.user;
    next();
  } catch (err) {
    res.status(401).json({ msg: 'Token is not valid' });
  }
};</text><text x="335" y="415" font-family="Arial" font-size="12" fill="#CDD6F4" style="white-space: pre">
// middleware/auth.js \n
const jwt = require('jsonwebtoken');

module.exports = function(req, res, next) {
  const token = req.header('x-auth-token');
  if (!token) return res.status(401).json({ msg: 'No token, authorization denied' });

  try {
    // Verify token and check expiration
    const decoded = jwt.verify(token, process.env.JWT_SECRET);
    
    // Additional expiration check
    const currentTime = Math.floor(Date.now() / 1000);
    if (decoded.exp &lt; currentTime) {
      return res.status(401).json({ msg: 'Token expired' });
    }
    
    req.user = decoded.user;
    next();
  } catch (err) {
    res.status(401).json({ msg: 'Token is not valid' });
  }
};</text>
  </g>
  
  <!-- Actions toolbar -->
  <g>
    <rect x="325" y="580" width="150" height="30" rx="5" fill="#89B4FA" />
    <text x="400" y="600" font-family="Arial" font-size="12" fill="#1E1E2E" text-anchor="middle" font-weight="bold">Apply Changes</text>
    
    <rect x="485" y="580" width="150" height="30" rx="5" fill="#313244" />
    <text x="560" y="600" font-family="Arial" font-size="12" fill="#CDD6F4" text-anchor="middle">Modify Solution</text>
    
    <rect x="645" y="580" width="150" height="30" rx="5" fill="#313244" />
    <text x="720" y="600" font-family="Arial" font-size="12" fill="#CDD6F4" text-anchor="middle">Show Diff</text>
  </g>
  
  <!-- Chat input area -->
  <rect x="240" y="660" width="720" height="80" rx="10" fill="#45475A" />
  <rect x="260" y="680" width="640" height="40" rx="5" fill="#1E1E2E" />
  <text x="280" y="705" font-family="Arial" font-size="14" fill="#7F849C">Ask me about your code...</text>
  
  <rect x="910" y="680" width="40" height="40" rx="5" fill="#89B4FA" />
  <text x="930" y="705" font-family="Arial" font-size="20" fill="#1E1E2E" text-anchor="middle" font-weight="bold">➤</text>
  
  <!-- Right toolbar -->
  <rect x="980" y="70" width="200" height="670" fill="#181825" rx="10" />
  
  <!-- Context panel header -->
  <rect x="980" y="70" width="200" height="50" rx="10" fill="#45475A" />
  <text x="1000" y="100" font-family="Arial" font-size="16" fill="#CDD6F4" font-weight="bold">Current Context</text>
  
  <!-- File tree -->
  <text x="1000" y="140" font-family="Arial" font-size="14" fill="#CDD6F4" font-weight="bold">Project Files</text>
  
  <g>
    <rect x="990" y="155" width="180" height="25" rx="3" fill="#313244" />
    <text x="1010" y="173" font-family="Arial" font-size="12" fill="#CDD6F4">📁 auth/</text>
  </g>
  
  <g>
    <rect x="1000" y="185" width="170" height="25" rx="3" fill="#45475A" />
    <text x="1020" y="203" font-family="Arial" font-size="12" fill="#CDD6F4">📄 middleware/auth.js</text>
  </g>
  
  <g>
    <rect x="1000" y="215" width="170" height="25" rx="3" fill="#313244" />
    <text x="1020" y="233" font-family="Arial" font-size="12" fill="#CDD6F4">📄 controllers/auth.js</text>
  </g>
  
  <g>
    <rect x="990" y="245" width="180" height="25" rx="3" fill="#313244" />
    <text x="1010" y="263" font-family="Arial" font-size="12" fill="#CDD6F4">📁 models/</text>
  </g>
  
  <g>
    <rect x="990" y="275" width="180" height="25" rx="3" fill="#313244" />
    <text x="1010" y="293" font-family="Arial" font-size="12" fill="#CDD6F4">📁 routes/</text>
  </g>
  
  <!-- Related Issues -->
  <text x="1000" y="330" font-family="Arial" font-size="14" fill="#CDD6F4" font-weight="bold">Related Issues</text>
  
  <g>
    <rect x="990" y="345" width="180" height="40" rx="3" fill="#313244" />
    <text x="1010" y="363" font-family="Arial" font-size="12" fill="#CDD6F4">JIRA-123: Auth issues in prod</text>
    <text x="1010" y="378" font-family="Arial" font-size="10" fill="#F38BA8">High Priority</text>
  </g>
  
  <g>
    <rect x="990" y="395" width="180" height="40" rx="3" fill="#313244" />
    <text x="1010" y="413" font-family="Arial" font-size="12" fill="#CDD6F4">JIRA-118: Implement refresh</text>
    <text x="1010" y="428" font-family="Arial" font-size="10" fill="#F9E2AF">Medium Priority</text>
  </g>
  
  <!-- Knowledge Base -->
  <text x="1000" y="470" font-family="Arial" font-size="14" fill="#CDD6F4" font-weight="bold">Knowledge Base</text>
  
  <g>
    <rect x="990" y="485" width="180" height="40" rx="3" fill="#313244" />
    <text x="1010" y="503" font-family="Arial" font-size="12" fill="#CDD6F4">JWT Best Practices</text>
    <text x="1010" y="518" font-family="Arial" font-size="10" fill="#89B4FA">Documentation</text>
  </g>
  
  <g>
    <rect x="990" y="535" width="180" height="40" rx="3" fill="#313244" />
    <text x="1010" y="553" font-family="Arial" font-size="12" fill="#CDD6F4">Auth Service Migration</text>
    <text x="1010" y="568" font-family="Arial" font-size="10" fill="#89B4FA">Team Decision</text>
  </g>
  
  <!-- LLM Status -->
  <text x="1000" y="600" font-family="Arial" font-size="14" fill="#CDD6F4" font-weight="bold">LLM Status</text>
  
  <g>
    <rect x="990" y="615" width="180" height="30" rx="3" fill="#313244" />
    <circle cx="1010" cy="630" r="8" fill="#A6E3A1" />
    <text x="1025" y="633" font-family="Arial" font-size="12" fill="#CDD6F4">Local: Mistral 7B</text>
  </g>
  
  <g>
    <rect x="990" y="655" width="180" height="30" rx="3" fill="#313244" />
    <rect x="1002" y="655" width="156" height="30" rx="3" fill="#45475A" />
    <text x="1025" y="673" font-family="Arial" font-size="12" fill="#CDD6F4">Escalate to Claude 3.5</text>
    <circle cx="1010" cy="670" r="8" fill="#F9E2AF" />
  </g>
</svg>