<svg xmlns="http://www.w3.org/2000/svg" viewBox="0 0 1200 800">
  <!-- Background -->
  <rect width="1200" height="800" fill="#1E1E2E" />
  
  <!-- Sidebar -->
  <rect x="0" y="0" width="220" height="800" fill="#181825" />
  
  <!-- Sidebar Logo Area -->
  <rect x="0" y="0" width="220" height="60" fill="#313244" />
  <text x="110" y="38" font-family="Arial" font-size="20" fill="#CDD6F4" text-anchor="middle" font-weight="bold">AUI</text>
  
  <!-- Sidebar Menu Items -->
  <g>
    <rect x="15" y="80" width="190" height="40" rx="5" fill="#181825" />
    <text x="55" y="105" font-family="Arial" font-size="14" fill="#CDD6F4">Dashboard</text>
    <rect x="20" y="90" width="20" height="20" fill="#CDD6F4" />
  </g>
  
  <g>
    <rect x="15" y="130" width="190" height="40" rx="5" fill="#181825" />
    <text x="55" y="155" font-family="Arial" font-size="14" fill="#CDD6F4">Code Assistant</text>
    <rect x="20" y="140" width="20" height="20" fill="#89B4FA" />
  </g>
  
  <g>
    <rect x="15" y="180" width="190" height="40" rx="5" fill="#181825" />
    <text x="55" y="205" font-family="Arial" font-size="14" fill="#CDD6F4">Knowledge Base</text>
    <rect x="20" y="190" width="20" height="20" fill="#F9E2AF" />
  </g>
  
  <g>
    <rect x="15" y="230" width="190" height="40" rx="5" fill="#45475A" />
    <text x="55" y="255" font-family="Arial" font-size="14" fill="#CDD6F4">Command History</text>
    <rect x="20" y="240" width="20" height="20" fill="#F38BA8" />
  </g>
  
  <g>
    <rect x="15" y="280" width="190" height="40" rx="5" fill="#181825" />
    <text x="55" y="305" font-family="Arial" font-size="14" fill="#CDD6F4">CI/CD Monitor</text>
    <rect x="20" y="290" width="20" height="20" fill="#A6E3A1" />
  </g>
  
  <g>
    <rect x="15" y="330" width="190" height="40" rx="5" fill="#181825" />
    <text x="55" y="355" font-family="Arial" font-size="14" fill="#CDD6F4">Settings</text>
    <rect x="20" y="340" width="20" height="20" fill="#FAB387" />
  </g>
  
  <!-- Sidebar bottom info -->
  <rect x="15" y="730" width="190" height="50" rx="5" fill="#313244" opacity="0.8" />
  <text x="110" y="760" font-family="Arial" font-size="12" fill="#CDD6F4" text-anchor="middle">Local LLM: Mistral 7B</text>
  <circle cx="30" cy="755" r="8" fill="#A6E3A1" />
  
  <!-- Main Content Area -->
  <rect x="240" y="20" width="700" height="760" rx="10" fill="#313244" />
  
  <!-- Header -->
  <rect x="240" y="20" width="700" height="60" rx="10" rx-bottom="0" ry-bottom="0" fill="#45475A" />
  <text x="270" y="55" font-family="Arial" font-size="20" fill="#CDD6F4" font-weight="bold">Command History</text>
  
  <!-- Search Bar -->
  <rect x="540" y="30" width="250" height="40" rx="5" fill="#1E1E2E" />
  <text x="560" y="55" font-family="Arial" font-size="14" fill="#7F849C">Search commands...</text>
  <rect x="800" y="30" width="40" height="40" rx="5" fill="#89B4FA" />
  <text x="820" y="55" font-family="Arial" font-size="14" fill="#1E1E2E" text-anchor="middle" font-weight="bold">🔍</text>
  
  <!-- Terminal Window -->
  <rect x="240" y="80" width="700" height="400" fill="#1E1E2E" />
  
  <!-- Command history entries -->
  <g>
    <rect x="240" y="80" width="700" height="30" fill="#313244" />
    <text x="260" y="100" font-family="monospace" font-size="12" fill="#F38BA8">$ npm install express mongoose dotenv jsonwebtoken bcryptjs</text>
  </g>
  
  <g>
    <rect x="240" y="110" width="700" height="30" fill="#1E1E2E" />
    <text x="260" y="130" font-family="monospace" font-size="12" fill="#CDD6F4">added 128 packages, and audited 129 packages in 3.5s</text>
  </g>
  
  <g>
    <rect x="240" y="140" width="700" height="30" fill="#313244" />
    <text x="260" y="160" font-family="monospace" font-size="12" fill="#F38BA8">$ mkdir models controllers routes middleware</text>
  </g>
  
  <g>
    <rect x="240" y="170" width="700" height="30" fill="#1E1E2E" />
    <text x="260" y="190" font-family="monospace" font-size="12" fill="#F38BA8">$ touch .env server.js</text>
  </g>
  
  <g>
    <rect x="240" y="200" width="700" height="30" fill="#313244" />
    <text x="260" y="220" font-family="monospace" font-size="12" fill="#F38BA8">$ git init</text>
  </g>
  
  <g>
    <rect x="240" y="230" width="700" height="30" fill="#1E1E2E" />
    <text x="260" y="250" font-family="monospace" font-size="12" fill="#CDD6F4">Initialized empty Git repository in /home/dev/projects/auth-service/.git/</text>
  </g>
  
  <g>
    <rect x="240" y="260" width="700" height="30" fill="#313244" />
    <text x="260" y="280" font-family="monospace" font-size="12" fill="#F38BA8">$ git add .</text>
  </g>
  
  <g>
    <rect x="240" y="290" width="700" height="30" fill="#1E1E2E" />
    <text x="260" y="310" font-family="monospace" font-size="12" fill="#F38BA8">$ git commit -m "Initial project setup with dependencies"</text>
  </g>
  
  <g>
    <rect x="240" y="320" width="700" height="30" fill="#313244" />
    <text x="260" y="340" font-family="monospace" font-size="12" fill="#F38BA8">$ npm run dev</text>
  </g>
  
  <g>
    <rect x="240" y="350" width="700" height="80" fill="#1E1E2E" />
    <text x="260" y="370" font-family="monospace" font-size="12" fill="#CDD6F4">Server running in development mode on port 5000</text>
    <text x="260" y="390" font-family="monospace" font-size="12" fill="#CDD6F4">MongoDB Connected: cluster0.mongodb.net</text>
    <text x="260" y="410" font-family="monospace" font-size="12" fill="#A6E3A1">API is ready at http://localhost:5000/api</text>
  </g>
  
  <g>
    <rect x="240" y="430" width="700" height="30" fill="#313244" />
    <text x="260" y="450" font-family="monospace" font-size="12" fill="#89B4FA">dev@localhost:~$ _</text>
  </g>
  
  <!-- Command Analysis -->
  <rect x="240" y="490" width="700" height="290" rx="5" fill="#313244" />
  <text x="270" y="520" font-family="Arial" font-size="18" fill="#CDD6F4" font-weight="bold">Command Pattern Analysis</text>
  
  <!-- Pattern Cards -->
  <g>
    <!-- Common Workflow Pattern 1 -->
    <rect x="270" y="540" width="320" height="100" rx="5" fill="#45475A" />
    <text x="290" y="565" font-family="Arial" font-size="14" fill="#CDD6F4" font-weight="bold">Project Initialization Pattern</text>
    <text x="290" y="585" font-family="Arial" font-size="12" fill="#CDD6F4">npm install → mkdir → touch → git init → git add → git commit</text>
    <text x="290" y="605" font-family="Arial" font-size="12" fill="#7F849C">Detected 8 times in last 30 days</text>
    
    <rect x="500" y="570" width="70" height="30" rx="5" fill="#89B4FA" />
    <text x="535" y="590" font-family="Arial" font-size="12" fill="#1E1E2E" text-anchor="middle" font-weight="bold">Create Macro</text>
  </g>
  
  <g>
    <!-- Common Workflow Pattern 2 -->
    <rect x="270" y="660" width="320" height="100" rx="5" fill="#45475A" />
    <text x="290" y="685" font-family="Arial" font-size="14" fill="#CDD6F4" font-weight="bold">Express Project Structure</text>
    <text x="290" y="705" font-family="Arial" font-size="12" fill="#CDD6F4">mkdir models controllers routes middleware</text>
    <text x="290" y="725" font-family="Arial" font-size="12" fill="#7F849C">Detected 5 times in last 30 days</text>
    
    <rect x="500" y="690" width="70" height="30" rx="5" fill="#89B4FA" />
    <text x="535" y="710" font-family="Arial" font-size="12" fill="#1E1E2E" text-anchor="middle" font-weight="bold">Create Macro</text>
  </g>
  
  <!-- Recommended Automation -->
  <rect x="610" y="540" width="320" height="220" rx="5" fill="#313244" />
  <text x="630" y="565" font-family="Arial" font-size="14" fill="#CDD6F4" font-weight="bold">Recommended Automation</text>
  
  <g>
    <rect x="630" y="580" width="280" height="70" rx="5" fill="#45475A" />
    <text x="650" y="600" font-family="Arial" font-size="12" fill="#CDD6F4" font-weight="bold">Express.js Project Initializer</text>
    <text x="650" y="620" font-family="Arial" font-size="10" fill="#CDD6F4">Create complete Express.js project structure</text>
    <text x="650" y="635" font-family="Arial" font-size="10" fill="#7F849C">Save ~15 min per project setup</text>
  </g>
  
  <g>
    <rect x="630" y="660" width="280" height="70" rx="5" fill="#45475A" />
    <text x="650" y="680" font-family="Arial" font-size="12" fill="#CDD6F4" font-weight="bold">Test-Deploy Pipeline</text>
    <text x="650" y="700" font-family="Arial" font-size="10" fill="#CDD6F4">Run tests, build and deploy if successful</text>
    <text x="650" y="715" font-family="Arial" font-size="10" fill="#7F849C">Save ~30 min per deployment</text>
  </g>
  
  <!-- Right Panel - Command Statistics -->
  <rect x="960" y="20" width="220" height="760" rx="10" fill="#181825" />
  
  <!-- Statistics Header -->
  <text x="980" y="55" font-family="Arial" font-size="18" fill="#CDD6F4" font-weight="bold">Command Stats</text>
  
  <!-- Most Used Commands Chart -->
  <text x="980" y="100" font-family="Arial" font-size="14" fill="#CDD6F4">Most Used Commands</text>
  
  <!-- Bar Chart -->
  <rect x="980" y="120" width="180" height="200" fill="#1E1E2E" rx="5" />
  
  <!-- Chart Bars -->
  <g>
    <rect x="990" y="135" width="100" height="25" fill="#89B4FA" />
    <text x="1100" y="150" font-family="Arial" font-size="10" fill="#CDD6F4">git</text>
    <text x="980" y="150" font-family="Arial" font-size="10" fill="#CDD6F4" text-anchor="end">32%</text>
  </g>
  
  <g>
    <rect x="990" y="170" width="80" height="25" fill="#89B4FA" />
    <text x="1080" y="185" font-family="Arial" font-size="10" fill="#CDD6F4">npm</text>
    <text x="980" y="185" font-family="Arial" font-size="10" fill="#CDD6F4" text-anchor="end">26%</text>
  </g>
  
  <g>
    <rect x="990" y="205" width="60" height="25" fill="#89B4FA" />
    <text x="1060" y="220" font-family="Arial" font-size="10" fill="#CDD6F4">docker</text>
    <text x="980" y="220" font-family="Arial" font-size="10" fill="#CDD6F4" text-anchor="end">18%</text>
  </g>
  
  <g>
    <rect x="990" y="240" width="40" height="25" fill="#89B4FA" />
    <text x="1040" y="255" font-family="Arial" font-size="10" fill="#CDD6F4">ls/cd</text>
    <text x="980" y="255" font-family="Arial" font-size="10" fill="#CDD6F4" text-anchor="end">12%</text>
  </g>
  
  <g>
    <rect x="990" y="275" width="30" height="25" fill="#89B4FA" />
    <text x="1030" y="290" font-family="Arial" font-size="10" fill="#CDD6F4">other</text>
    <text x="980" y="290" font-family="Arial" font-size="10" fill="#CDD6F4" text-anchor="end">8%</text>
  </g>
  
  <!-- Time Distribution -->
  <text x="980" y="350" font-family="Arial" font-size="14" fill="#CDD6F4">Time Distribution</text>
  
  <!-- Pie Chart -->
  <circle cx="1070" cy="450" r="70" fill="#1E1E2E" />
  
  <!-- Pie Chart Segments -->
  <path d="M1070,450 L1070,380 A70,70 0 0,1 1140,450 z" fill="#89B4FA" />
  <path d="M1070,450 L1140,450 A70,70 0 0,1 1070,520 z" fill="#F38BA8" />
  <path d="M1070,450 L1070,520 A70,70 0 0,1 1000,450 z" fill="#A6E3A1" />
  <path d="M1070,450 L1000,450 A70,70 0 0,1 1070,380 z" fill="#F9E2AF" />
  
  <!-- Legend -->
  <g>
    <rect x="990" y="540" width="10" height="10" fill="#89B4FA" />
    <text x="1010" y="550" font-family="Arial" font-size="10" fill="#CDD6F4">Development (45%)</text>
  </g>
  
  <g>
    <rect x="990" y="560" width="10" height="10" fill="#F38BA8" />
    <text x="1010" y="570" font-family="Arial" font-size="10" fill="#CDD6F4">Deployment (25%)</text>
  </g>
  
  <g>
    <rect x="990" y="580" width="10" height="10" fill="#A6E3A1" />
    <text x="1010" y="590" font-family="Arial" font-size="10" fill="#CDD6F4">Testing (20%)</text>
  </g>
  
  <g>
    <rect x="990" y="600" width="10" height="10" fill="#F9E2AF" />
    <text x="1010" y="610" font-family="Arial" font-size="10" fill="#CDD6F4">Other (10%)</text>
  </g>
  
  <!-- Actions -->
  <text x="980" y="650" font-family="Arial" font-size="14" fill="#CDD6F4">Actions</text>
  
  <g>
    <rect x="980" y="670" width="180" height="40" rx="5" fill="#89B4FA" />
    <text x="1070" y="695" font-family="Arial" font-size="12" fill="#1E1E2E" text-anchor="middle" font-weight="bold">Generate Report</text>
  </g>
  
  <g>
    <rect x="980" y="720" width="180" height="40" rx="5" fill="#45475A" />
    <text x="1070" y="745" font-family="Arial" font-size="12" fill="#CDD6F4" text-anchor="middle">Export History</text>
  </g>
</svg>