<svg xmlns="http://www.w3.org/2000/svg" viewBox="0 0 1200 800">
  <!-- Background -->
  <rect width="1200" height="800" fill="#1E1E2E" />
  
  <!-- Sidebar -->
  <rect x="0" y="0" width="220" height="800" fill="#181825" />
  
  <!-- Sidebar Logo Area -->
  <rect x="0" y="0" width="220" height="60" fill="#313244" />
  <text x="110" y="38" font-family="Arial" font-size="20" fill="#CDD6F4" text-anchor="middle" font-weight="bold">AUI</text>
  
  <!-- Sidebar Menu Items -->
  <g>
    <rect x="15" y="80" width="190" height="40" rx="5" fill="#45475A" />
    <text x="55" y="105" font-family="Arial" font-size="14" fill="#CDD6F4">Dashboard</text>
    <rect x="20" y="90" width="20" height="20" fill="#CDD6F4" />
  </g>
  
  <g>
    <rect x="15" y="130" width="190" height="40" rx="5" fill="#181825" />
    <text x="55" y="155" font-family="Arial" font-size="14" fill="#CDD6F4">Code Assistant</text>
    <rect x="20" y="140" width="20" height="20" fill="#89B4FA" />
  </g>
  
  <g>
    <rect x="15" y="180" width="190" height="40" rx="5" fill="#181825" />
    <text x="55" y="205" font-family="Arial" font-size="14" fill="#CDD6F4">Knowledge Base</text>
    <rect x="20" y="190" width="20" height="20" fill="#F9E2AF" />
  </g>
  
  <g>
    <rect x="15" y="230" width="190" height="40" rx="5" fill="#181825" />
    <text x="55" y="255" font-family="Arial" font-size="14" fill="#CDD6F4">Command History</text>
    <rect x="20" y="240" width="20" height="20" fill="#F38BA8" />
  </g>
  
  <g>
    <rect x="15" y="280" width="190" height="40" rx="5" fill="#181825" />
    <text x="55" y="305" font-family="Arial" font-size="14" fill="#CDD6F4">CI/CD Monitor</text>
    <rect x="20" y="290" width="20" height="20" fill="#A6E3A1" />
  </g>
  
  <g>
    <rect x="15" y="330" width="190" height="40" rx="5" fill="#181825" />
    <text x="55" y="355" font-family="Arial" font-size="14" fill="#CDD6F4">Settings</text>
    <rect x="20" y="340" width="20" height="20" fill="#FAB387" />
  </g>
  
  <!-- Sidebar bottom info -->
  <rect x="15" y="730" width="190" height="50" rx="5" fill="#313244" opacity="0.8" />
  <text x="110" y="760" font-family="Arial" font-size="12" fill="#CDD6F4" text-anchor="middle">Local LLM: Mistral 7B</text>
  <circle cx="30" cy="755" r="8" fill="#A6E3A1" />
  
  <!-- Main content -->
  <g> <!-- Project Overview -->
    <rect x="240" y="20" width="680" height="180" rx="10" fill="#313244" />
    <text x="270" y="50" font-family="Arial" font-size="18" fill="#CDD6F4" font-weight="bold">Project Overview</text>
    
    <!-- Project metrics -->
    <g>
      <rect x="270" y="70" width="150" height="110" rx="5" fill="#45475A" />
      <text x="345" y="95" font-family="Arial" font-size="14" fill="#CDD6F4" text-anchor="middle">Files</text>
      <text x="345" y="135" font-family="Arial" font-size="24" fill="#89B4FA" text-anchor="middle" font-weight="bold">324</text>
    </g>
    
    <g>
      <rect x="440" y="70" width="150" height="110" rx="5" fill="#45475A" />
      <text x="515" y="95" font-family="Arial" font-size="14" fill="#CDD6F4" text-anchor="middle">Open Issues</text>
      <text x="515" y="135" font-family="Arial" font-size="24" fill="#F38BA8" text-anchor="middle" font-weight="bold">12</text>
    </g>
    
    <g>
      <rect x="610" y="70" width="150" height="110" rx="5" fill="#45475A" />
      <text x="685" y="95" font-family="Arial" font-size="14" fill="#CDD6F4" text-anchor="middle">Code Quality</text>
      <text x="685" y="135" font-family="Arial" font-size="24" fill="#A6E3A1" text-anchor="middle" font-weight="bold">A+</text>
    </g>
    
    <g>
      <rect x="780" y="70" width="120" height="110" rx="5" fill="#45475A" />
      <text x="840" y="95" font-family="Arial" font-size="14" fill="#CDD6F4" text-anchor="middle">Build</text>
      <circle cx="840" cy="125" r="30" fill="#181825" stroke="#A6E3A1" stroke-width="5" />
      <text x="840" y="132" font-family="Arial" font-size="12" fill="#CDD6F4" text-anchor="middle">Passing</text>
    </g>
  </g>
  
  <g> <!-- Recent Knowledge Updates -->
    <rect x="240" y="220" width="440" height="280" rx="10" fill="#313244" />
    <text x="270" y="250" font-family="Arial" font-size="18" fill="#CDD6F4" font-weight="bold">Recent Knowledge Updates</text>
    
    <g>
      <rect x="270" y="270" width="380" height="60" rx="5" fill="#45475A" />
      <text x="290" y="295" font-family="Arial" font-size="14" fill="#F9E2AF" font-weight="bold">Authentication middleware updated</text>
      <text x="290" y="315" font-family="Arial" font-size="12" fill="#CDD6F4">Switched from JWT to session-based auth</text>
      <text x="620" y="305" font-family="Arial" font-size="10" fill="#7F849C" text-anchor="end">2h ago</text>
    </g>
    
    <g>
      <rect x="270" y="340" width="380" height="60" rx="5" fill="#45475A" />
      <text x="290" y="365" font-family="Arial" font-size="14" fill="#F9E2AF" font-weight="bold">New API endpoint for user profiles</text>
      <text x="290" y="385" font-family="Arial" font-size="12" fill="#CDD6F4">GET /api/v2/users/:id/profile added</text>
      <text x="620" y="375" font-family="Arial" font-size="10" fill="#7F849C" text-anchor="end">4h ago</text>
    </g>
    
    <g>
      <rect x="270" y="410" width="380" height="60" rx="5" fill="#45475A" />
      <text x="290" y="435" font-family="Arial" font-size="14" fill="#F9E2AF" font-weight="bold">Database schema update</text>
      <text x="290" y="455" font-family="Arial" font-size="12" fill="#CDD6F4">Added timestamps to transactions table</text>
      <text x="620" y="445" font-family="Arial" font-size="10" fill="#7F849C" text-anchor="end">1d ago</text>
    </g>
  </g>
  
  <g> <!-- Deployment Status -->
    <rect x="700" y="220" width="220" height="280" rx="10" fill="#313244" />
    <text x="730" y="250" font-family="Arial" font-size="18" fill="#CDD6F4" font-weight="bold">Deployments</text>
    
    <g>
      <rect x="730" y="270" width="160" height="50" rx="5" fill="#45475A" />
      <text x="750" y="295" font-family="Arial" font-size="14" fill="#CDD6F4">Production</text>
      <circle cx="860" cy="295" r="8" fill="#A6E3A1" />
      <text x="880" y="300" font-family="Arial" font-size="12" fill="#A6E3A1">v2.4.1</text>
    </g>
    
    <g>
      <rect x="730" y="330" width="160" height="50" rx="5" fill="#45475A" />
      <text x="750" y="355" font-family="Arial" font-size="14" fill="#CDD6F4">Staging</text>
      <circle cx="860" cy="355" r="8" fill="#89B4FA" />
      <text x="880" y="360" font-family="Arial" font-size="12" fill="#89B4FA">v2.5.0</text>
    </g>
    
    <g>
      <rect x="730" y="390" width="160" height="50" rx="5" fill="#45475A" />
      <text x="750" y="415" font-family="Arial" font-size="14" fill="#CDD6F4">Development</text>
      <circle cx="860" cy="415" r="8" fill="#F38BA8" />
      <text x="880" y="420" font-family="Arial" font-size="12" fill="#F38BA8">Building</text>
    </g>
  </g>
  
  <g> <!-- Command History Visualization -->
    <rect x="240" y="520" width="680" height="260" rx="10" fill="#313244" />
    <text x="270" y="550" font-family="Arial" font-size="18" fill="#CDD6F4" font-weight="bold">Command History Analytics</text>
    
    <!-- Chart -->
    <rect x="270" y="570" width="620" height="180" fill="#181825" rx="5" />
    
    <!-- Chart bars -->
    <rect x="300" y="700" width="30" height="30" fill="#89B4FA" />
    <rect x="350" y="680" width="30" height="50" fill="#89B4FA" />
    <rect x="400" y="650" width="30" height="80" fill="#89B4FA" />
    <rect x="450" y="620" width="30" height="110" fill="#89B4FA" />
    <rect x="500" y="590" width="30" height="140" fill="#F38BA8" />
    <rect x="550" y="670" width="30" height="60" fill="#89B4FA" />
    <rect x="600" y="690" width="30" height="40" fill="#89B4FA" />
    <rect x="650" y="710" width="30" height="20" fill="#89B4FA" />
    
    <!-- Chart axes -->
    <line x1="270" y1="730" x2="890" y2="730" stroke="#7F849C" stroke-width="2" />
    <line x1="270" y1="730" x2="270" y2="570" stroke="#7F849C" stroke-width="2" />
    
    <!-- Chart labels -->
    <text x="300" y="750" font-family="Arial" font-size="10" fill="#CDD6F4" text-anchor="middle">git</text>
    <text x="350" y="750" font-family="Arial" font-size="10" fill="#CDD6F4" text-anchor="middle">npm</text>
    <text x="400" y="750" font-family="Arial" font-size="10" fill="#CDD6F4" text-anchor="middle">ls</text>
    <text x="450" y="750" font-family="Arial" font-size="10" fill="#CDD6F4" text-anchor="middle">cd</text>
    <text x="500" y="750" font-family="Arial" font-size="10" fill="#CDD6F4" text-anchor="middle">node</text>
    <text x="550" y="750" font-family="Arial" font-size="10" fill="#CDD6F4" text-anchor="middle">docker</text>
    <text x="600" y="750" font-family="Arial" font-size="10" fill="#CDD6F4" text-anchor="middle">yarn</text>
    <text x="650" y="750" font-family="Arial" font-size="10" fill="#CDD6F4" text-anchor="middle">jest</text>
    
    <text x="260" y="590" font-family="Arial" font-size="10" fill="#CDD6F4" text-anchor="end">40</text>
    <text x="260" y="630" font-family="Arial" font-size="10" fill="#CDD6F4" text-anchor="end">30</text>
    <text x="260" y="670" font-family="Arial" font-size="10" fill="#CDD6F4" text-anchor="end">20</text>
    <text x="260" y="710" font-family="Arial" font-size="10" fill="#CDD6F4" text-anchor="end">10</text>
  </g>
  
  <!-- Right sidebar - quick access -->
  <rect x="940" y="0" width="260" height="800" fill="#181825" />
  
  <!-- Search bar -->
  <rect x="960" y="20" width="220" height="40" rx="5" fill="#313244" />
  <text x="980" y="45" font-family="Arial" font-size="14" fill="#7F849C">Search code...</text>
  
  <!-- Shortcuts -->
  <text x="960" y="100" font-family="Arial" font-size="16" fill="#CDD6F4" font-weight="bold">Quick Access</text>
  
  <g>
    <rect x="960" y="120" width="220" height="40" rx="5" fill="#45475A" />
    <text x="980" y="145" font-family="Arial" font-size="14" fill="#CDD6F4">Open AI Assistant</text>
  </g>
  
  <g>
    <rect x="960" y="170" width="220" height="40" rx="5" fill="#45475A" />
    <text x="980" y="195" font-family="Arial" font-size="14" fill="#CDD6F4">Recent Files</text>
  </g>
  
  <g>
    <rect x="960" y="220" width="220" height="40" rx="5" fill="#45475A" />
    <text x="980" y="245" font-family="Arial" font-size="14" fill="#CDD6F4">Active Issues</text>
  </g>
  
  <!-- Recent Activity -->
  <text x="960" y="300" font-family="Arial" font-size="16" fill="#CDD6F4" font-weight="bold">Recent Activity</text>
  
  <g>
    <rect x="960" y="320" width="220" height="60" rx="5" fill="#313244" />
    <text x="980" y="340" font-family="Arial" font-size="12" fill="#CDD6F4">Updated user authentication</text>
    <text x="980" y="360" font-family="Arial" font-size="10" fill="#7F849C">auth/middleware.js</text>
  </g>
  
  <g>
    <rect x="960" y="390" width="220" height="60" rx="5" fill="#313244" />
    <text x="980" y="410" font-family="Arial" font-size="12" fill="#CDD6F4">Fixed API pagination bug</text>
    <text x="980" y="430" font-family="Arial" font-size="10" fill="#7F849C">api/controllers/users.js</text>
  </g>
  
  <g>
    <rect x="960" y="460" width="220" height="60" rx="5" fill="#313244" />
    <text x="980" y="480" font-family="Arial" font-size="12" fill="#CDD6F4">Added new test cases</text>
    <text x="980" y="500" font-family="Arial" font-size="10" fill="#7F849C">tests/integration/auth.test.js</text>
  </g>
  
  <!-- AI Status -->
  <text x="960" y="560" font-family="Arial" font-size="16" fill="#CDD6F4" font-weight="bold">AI Status</text>
  
  <rect x="960" y="580" width="220" height="180" rx="5" fill="#313244" />
  
  <text x="970" y="600" font-family="Arial" font-size="12" fill="#CDD6F4">Active Models:</text>
  <g>
    <rect x="970" y="610" width="10" height="10" fill="#A6E3A1" />
    <text x="990" y="620" font-family="Arial" font-size="12" fill="#CDD6F4">Mistral-7B (Local)</text>
  </g>
  
  <g>
    <rect x="970" y="630" width="10" height="10" fill="#F9E2AF" />
    <text x="990" y="640" font-family="Arial" font-size="12" fill="#CDD6F4">Qwen-1.5 (Local)</text>
  </g>
  
  <text x="970" y="670" font-family="Arial" font-size="12" fill="#CDD6F4">External LLM:</text>
  <g>
    <rect x="970" y="680" width="10" height="10" fill="#89B4FA" />
    <text x="990" y="690" font-family="Arial" font-size="12" fill="#CDD6F4">Claude 3.5 (Available)</text>
  </g>
  
  <text x="970" y="720" font-family="Arial" font-size="12" fill="#CDD6F4">Context Size:</text>
  <rect x="970" y="730" width="200" height="10" rx="5" fill="#45475A" />
  <rect x="970" y="730" width="120" height="10" rx="5" fill="#89B4FA" />
  <text x="1090" y="740" font-family="Arial" font-size="10" fill="#CDD6F4" text-anchor="middle">60%</text>
</svg>